<svg xmlns="http://www.w3.org/2000/svg" xmlns:xlink="http://www.w3.org/1999/xlink" fill="none" version="1.1" width="380" height="100" viewBox="0 0 380 100"><defs><linearGradient x1="0.15280546247959137" y1="-0.7427829504013062" x2="1.0544968843460083" y2="1.840320348739624" id="master_svg0_1_6907"><stop offset="0%" stop-color="#0A6BFF" stop-opacity="1"/><stop offset="44.34598088264465%" stop-color="#005BFF" stop-opacity="1"/><stop offset="100%" stop-color="#002978" stop-opacity="1"/></linearGradient><linearGradient x1="0.20838627219200134" y1="0.29988551139831543" x2="1.2071454524993896" y2="1.8337820768356323" id="master_svg1_1_6912"><stop offset="0%" stop-color="#000000" stop-opacity="0.3400000035762787"/><stop offset="100%" stop-color="#000000" stop-opacity="0.11999999731779099"/></linearGradient><linearGradient x1="-2.100346088409424" y1="-0.48609867691993713" x2="1.7196837663650513" y2="1" id="master_svg2_1_6904"><stop offset="0%" stop-color="#000000" stop-opacity="0.18000000715255737"/><stop offset="100%" stop-color="#000000" stop-opacity="0.019999999552965164"/></linearGradient></defs><g><g></g><g><path d="M305.68800756835935,26.55555534362793C306.0690075683594,27.52162634362793,306.4300075683594,28.54807534362793,306.7970075683594,29.634905343627928L307.2400075683594,30.96808534362793L307.46700756835935,31.65640534362793L326.8790075683594,31.65640534362793L326.8790075683594,42.63095534362793L321.9500075683594,42.63095534362793L321.9500075683594,36.19050534362793L287.95200756835936,36.19050534362793L287.95200756835936,42.57945534362793L283.0230075683594,42.57945534362793L283.0230075683594,31.65640534362793L302.4360075683594,31.65640534362793C301.9020075683594,30.303905343627928,301.29100756835936,29.03030534362793,300.66900756835935,27.87011534362793L300.4030075683594,27.37993534362793L305.68800756835935,26.55555534362793ZM154.90830756835936,27.01923934362793L154.90830756835936,30.36828534362793Q154.90830756835936,34.95905534362793,154.4143075683594,39.174255343627934L154.29840756835938,40.10625534362793L174.93090756835937,40.10625534362793L174.93090756835937,44.84645534362793L155.51810756835937,44.84645534362793C159.01410756835938,55.68245534362793,165.70040756835937,64.08005534362793,175.48050756835937,70.08825534362794L175.9981075683594,70.40225534362793L172.99980756835936,74.36955534362792C163.24250756835937,68.28975534362793,156.38200756835937,59.78835534362793,152.51980756835937,48.865355343627925C149.21980756835939,60.47395534362793,142.52560756835936,69.04025534362793,132.48543756835937,74.56405534362793L131.98895756835938,74.83325534362794L128.88900756835938,70.71135534362793C139.19660756835938,65.63825534362793,145.75990756835938,57.16855534362793,148.53040756835938,45.40055534362793L148.65750756835936,44.84645534362793L130.00701756835937,44.84645534362793L130.00701756835937,40.10625534362793L149.47060756835938,40.10625534362793C149.74170756835937,37.67895534362793,149.93240756835937,35.12946534362793,150.00710756835937,32.49404534362793L150.02960756835938,31.50180534362793L150.02960756835938,27.01923934362793L154.90830756835936,27.01923934362793ZM225.19060756835938,31.96555534362793L225.19060756835938,28.41041534362793L197.6976075683594,28.41041534362793L197.6976075683594,31.96555534362793L225.19060756835938,31.96555534362793ZM195.66480756835938,28.66804534362793L195.66480756835938,42.32185534362793L186.0092075683594,42.32185534362793L185.45020756835936,46.23765534362793L195.91890756835937,46.23765534362793L195.91620756835937,48.00925534362793L195.90420756835937,50.269755343627935L195.88270756835936,52.41395534362793L195.8604075683594,53.945655343627934L195.82270756835936,55.88595534362793L195.78830756835936,57.264755343627925L195.73460756835937,59.00095534362793L195.68850756835937,60.22635534362793L195.61920756835937,61.75805534362793L195.58130756835936,62.47995534362793L195.54120756835937,63.17255534362793L195.4546075683594,64.47005534362793L195.38400756835938,65.36615534362792L195.30870756835938,66.19625534362794L195.22880756835937,66.96025534362792L195.14410756835937,67.65815534362793L195.08520756835938,68.08665534362794C195.07520756835936,68.15555534362792,195.0651075683594,68.22335534362793,195.05500756835937,68.28985534362792C194.4451075683594,72.05105534362792,191.75170756835936,74.06045534362792,187.02560756835936,74.36965534362793C185.88720756835937,74.36965534362793,184.74890756835939,74.30365534362792,183.61050756835937,74.22455534362793L182.75680756835936,74.16355534362793L181.5880075683594,69.88705534362794C183.01090756835936,70.04165534362792,184.48460756835937,70.14465534362793,185.95840756835938,70.14465534362793C188.85510756835936,70.14465534362793,190.53210756835938,68.90815534362793,190.93860756835937,66.43495534362793L190.99190756835938,66.08185534362792L191.04340756835938,65.69585534362793L191.11690756835938,65.05505534362793L191.1634075683594,64.58675534362793L191.22940756835936,63.82265534362793L191.27070756835937,63.27225534362793L191.34680756835937,62.07315534362793L191.39790756835936,61.08795534362793L191.44360756835937,60.02905534362793L191.48380756835937,58.89685534362793L191.50750756835936,58.101255343627926L191.53810756835938,56.84675534362793L191.56960756835937,55.060155343627926L191.59000756835937,53.14365534362793L191.59930756835936,50.56565534362793L180.6224075683594,50.56565534362793L182.09610756835937,37.99385534362793L191.09110756835938,37.99385534362793L191.09110756835938,32.89299534362793L180.8765075683594,32.89299534362793L180.8765075683594,28.66804534362793L195.66480756835938,28.66804534362793ZM273.16400756835935,68.13525534362793L273.16400756835935,28.71955534362793L234.28700756835937,28.71955534362793L234.28700756835937,33.45974534362793L268.3360075683594,33.45974534362793L268.3360075683594,66.79565534362793L268.33300756835933,67.01375534362793C268.28600756835937,68.72315534362792,267.6770075683594,69.57795534362793,266.50700756835937,69.57795534362793L259.2900075683594,69.47485534362792L260.51000756835936,74.16355534362793L267.5230075683594,74.16355534362793L267.7710075683594,74.16055534362792C271.36600756835935,74.07325534362792,273.16400756835935,72.06475534362792,273.16400756835935,68.13525534362793ZM222.95480756835937,47.010455343627925L222.95480756835937,33.97498534362793L200.08630756835936,33.97498534362793L200.08630756835936,47.010455343627925L222.95480756835937,47.010455343627925ZM350.06300756835935,33.982925343627926C353.26000756835936,33.982925343627926,355.94000756835936,34.90368534362793,358.0080075683594,36.84215534362793C360.03000756835934,38.78055534362793,361.0640075683594,41.25215534362793,361.0640075683594,44.30515534362793C361.0640075683594,47.30985534362793,359.9360075683594,50.02365534362793,357.7730075683594,52.49515534362793L357.6170075683594,52.65925534362793L357.2780075683594,52.99915534362793L356.90400756835936,53.35475534362793C356.7730075683594,53.47585534362793,356.63700756835937,53.59965534362793,356.4940075683594,53.726055343627934L356.04900756835934,54.11345534362793L355.5690075683594,54.51685534362793L355.0520075683594,54.93645534362793L354.2100075683594,55.59655534362793L353.6040075683594,56.05725534362793L352.96200756835935,56.53465534362793L352.2830075683594,57.028855343627924L351.5670075683594,57.54005534362793L350.81500756835936,58.068255343627925C347.3160075683594,60.45735534362793,345.17900756835934,62.57485534362793,344.4030075683594,64.42055534362794L344.32800756835934,64.61055534362794L361.11100756835935,64.61055534362794L361.11100756835935,69.26285534362793L337.98100756835936,69.26285534362793C337.98100756835936,65.94955534362794,338.9840075683594,63.04065534362793,341.07300756835934,60.492955343627926L341.3190075683594,60.20055534362793C341.57200756835937,59.88975534362793,341.88100756835934,59.55405534362793,342.24600756835935,59.19295534362793L342.63000756835936,58.82345534362793C342.7640075683594,58.69745534362793,342.90500756835934,58.56865534362793,343.0510075683594,58.43705534362793L343.5090075683594,58.033455343627935L344.0040075683594,57.61275534362793L344.53600756835937,57.17475534362793L345.1050075683594,56.71945534362793L345.7110075683594,56.24665534362793L346.0270075683594,56.003655343627926L346.68800756835935,55.50455534362793L347.38500756835936,54.98765534362793L348.1180075683594,54.45305534362793L348.8880075683594,53.90055534362793L349.5790075683594,53.391455343627925L350.5330075683594,52.66935534362793L351.2530075683594,52.10495534362793L351.90400756835936,51.57375534362793C352.0690075683594,51.43655534362793,352.22600756835936,51.30275534362793,352.37600756835934,51.17235534362793L352.80400756835934,50.79145534362793C353.1430075683594,50.48245534362793,353.4360075683594,50.194555343627925,353.68300756835936,49.92675534362793C355.18800756835935,48.182155343627926,355.9870075683594,46.292155343627925,355.9870075683594,44.25675534362793C355.9870075683594,42.31825534362793,355.4700075683594,40.86445534362793,354.43500756835937,39.89525534362793C353.4010075683594,38.92595534362793,351.8500075683594,38.44135534362793,349.87500756835936,38.44135534362793C347.85200756835934,38.44135534362793,346.3010075683594,39.10645534362793,345.2240075683594,40.479055343627934L345.0800075683594,40.67055534362793C344.0030075683594,42.05835534362793,343.44000756835936,44.020155343627934,343.30900756835933,46.64025534362793L343.29400756835935,47.019055343627926L338.16900756835935,47.019055343627926C338.2150075683594,43.28055534362793,339.22200756835934,40.26315534362793,341.19000756835936,37.96665534362793L341.4130075683594,37.71445534362793C343.5760075683594,35.19445534362793,346.4900075683594,33.982925343627926,350.06300756835935,33.982925343627926ZM204.45690756835938,36.96335534362793L209.4879075683594,36.96335534362793L209.4879075683594,39.17885534362793L204.45690756835938,39.17885534362793L204.45690756835938,36.96335534362793ZM213.65460756835938,36.96335534362793L218.5332075683594,36.96335534362793L218.5332075683594,39.17885534362793L213.65460756835938,39.17885534362793L213.65460756835938,36.96335534362793ZM323.6960075683594,46.93345534362793C319.51500756835935,43.71455534362793,314.96400756835936,40.96055534362793,309.95700756835936,38.71515534362793L307.41600756835936,42.52795534362793L308.1120075683594,42.85005534362793C312.7440075683594,45.034855343627925,317.24100756835935,47.96735534362793,321.64500756835935,51.64765534362793L324.3890075683594,47.47415534362793L323.6960075683594,46.93345534362793ZM263.81300756835935,38.86975534362793L263.81300756835935,43.352355343627934L231.6960075683594,43.352355343627934L231.6960075683594,38.86975534362793L263.81300756835935,38.86975534362793ZM301.77500756835934,42.52795534362793L298.7760075683594,39.02435534362793L298.3500075683594,39.40205534362793C294.76000756835936,42.52705534362793,290.2780075683594,45.08035534362793,284.9030075683594,47.06205534362793L286.98600756835935,51.49305534362793L287.68300756835936,51.205655343627924Q295.9930075683594,47.72155534362793,301.77500756835934,42.52795534362793ZM209.4879075683594,41.703555343627926L204.45690756835938,41.703555343627926L204.45690756835938,43.970655343627925L209.4879075683594,43.970655343627925L209.4879075683594,41.703555343627926ZM218.5332075683594,41.703555343627926L213.65460756835938,41.703555343627926L213.65460756835938,43.970655343627925L218.5332075683594,43.970655343627925L218.5332075683594,41.703555343627926ZM259.08700756835935,48.65925534362793L259.08700756835935,65.45595534362792L235.81200756835938,65.45595534362792L235.81200756835938,48.65925534362793L259.08700756835935,48.65925534362793ZM226.00380756835938,52.26595534362793L226.00380756835938,48.865355343627925L197.5452075683594,48.865355343627925L197.5452075683594,52.26595534362793L226.00380756835938,52.26595534362793ZM187.2798075683594,52.111355343627935L187.2798075683594,54.63605534362793L190.27810756835936,54.63605534362793L190.27810756835936,58.191155343627926L187.2798075683594,58.191155343627926L187.2798075683594,61.33405534362793L189.02140756835936,60.81105534362793C189.20760756835938,60.75415534362793,189.39220756835937,60.69685534362793,189.5760075683594,60.63835534362793L190.12560756835938,60.45815534362793L190.12560756835938,64.27095534362793C187.62460756835938,65.22785534362794,184.81690756835937,66.00695534362794,181.70240756835938,66.60845534362792L180.97820756835938,66.74405534362793L180.47010756835937,62.82825534362793L181.26170756835938,62.68175534362793L182.80690756835938,62.40805534362793L183.57000756835936,62.26155534362793L183.57000756835936,58.191155343627926L180.87660756835936,58.191155343627926L180.87660756835936,54.63605534362793L183.57000756835936,54.63605534362793L183.57000756835936,52.111355343627935L187.2798075683594,52.111355343627935ZM322.5090075683594,57.46975534362793L322.5090075683594,52.832655343627934L287.3930075683594,52.832655343627934L287.3930075683594,57.46975534362793L302.4360075683594,57.46975534362793L302.4360075683594,68.18675534362794L283.1240075683594,68.18675534362794L283.1240075683594,72.87535534362793L326.7780075683594,72.87535534362793L326.7780075683594,68.18675534362794L307.3140075683594,68.18675534362794L307.3140075683594,57.46975534362793L322.5090075683594,57.46975534362793ZM254.46200756835935,53.038755343627926L240.43600756835937,53.038755343627926L240.43600756835937,61.12795534362793L254.46200756835935,61.12795534362793L254.46200756835935,53.038755343627926ZM223.5137075683594,67.82605534362793L223.5137075683594,54.22385534362793L199.52720756835936,54.22385534362793L199.52720756835936,67.82605534362793L223.5137075683594,67.82605534362793ZM209.43700756835938,57.263755343627935L203.94860756835936,57.263755343627935L203.94860756835936,59.73685534362793L209.43700756835938,59.73685534362793L209.43700756835938,57.263755343627935ZM219.14310756835937,57.263755343627935L213.60380756835937,57.263755343627935L213.60380756835937,59.73685534362793L219.14310756835937,59.73685534362793L219.14310756835937,57.263755343627935ZM203.94860756835936,62.26155534362793L209.43700756835938,62.26155534362793L209.43700756835938,64.73465534362794L203.94860756835936,64.73465534362794L203.94860756835936,62.26155534362793ZM219.14310756835937,62.26155534362793L213.60380756835937,62.26155534362793L213.60380756835937,64.73465534362794L219.14310756835937,64.73465534362794L219.14310756835937,62.26155534362793ZM226.25820756835938,73.44215534362793L226.25820756835938,69.83555534362793L197.18980756835936,69.83555534362793L197.18980756835936,73.44215534362793L226.25820756835938,73.44215534362793Z" fill-rule="evenodd" fill="#FFFFFF" fill-opacity="1"/></g><g><g><path d="M42.4213640625,13.722223281860352C53.6042640625,13.722223281860352,62.9438640625,21.59755328186035,65.1740640625,32.09352328186036C67.0693640625,30.75472328186035,69.3838640625,29.968423281860353,71.8823640625,29.968423281860353C77.8161640625,29.968423281860353,82.7120640625,34.40312328186035,83.4229640625,40.13222328186035C95.2187640625,41.254823281860354,104.4446640625,51.16952328186035,104.4446640625,63.234523281860355C104.4446640625,75.92422328186035,94.2384640625,86.23532328186035,81.5704640625,86.44022328186036L81.1858640625,86.44332328186036L80.4104640625,86.44342328186035L79.9626640625,86.44002328186035C66.6739640625,86.24242328186035,55.5172640625,77.26542328186035,52.0583640625,65.06292328186035L51.9559640625,64.69222328186035L66.6398640625,66.12212328186035L43.8935640625,38.123423281860354L39.1040640625,73.50942328186035L51.2605640625,64.80892328186036C52.3983640625,73.27942328186035,56.5887640625,80.78532328186036,62.6912640625,86.18862328186034L62.9824640625,86.44322328186036L23.0390640625,86.44332328186036L23.0396640625,86.43072328186035C10.5528440625,86.02292328186036,0.5556640625,75.79372328186035,0.5556640625,63.234523281860355C0.5556640625,51.91332328186035,8.6789640625,42.48542328186035,19.4265640625,40.43802328186035C19.2527640625,39.29472328186036,19.1626640625,38.123423281860354,19.1626640625,36.93112328186035C19.1626640625,24.11322328186035,29.5758640625,13.722223281860352,42.4213640625,13.722223281860352Z" fill-rule="evenodd" fill="url(#master_svg0_1_6907)" fill-opacity="1"/></g><g><path d="M96.69164525146485,57.04545021057129C99.20434525146484,57.04545021057129,101.62404525146485,57.44305221057129,103.89094525146484,58.17865021057129C104.25354525146484,59.80663021057129,104.44454525146485,61.49829021057129,104.44454525146485,63.23448021057129C104.44454525146485,75.92425021057129,94.23854525146484,86.2352502105713,81.57047525146484,86.44025021057129L81.18584525146484,86.44335021057128L80.41048525146485,86.44345021057129L79.96264525146485,86.44005021057129C77.95113525146485,86.41015021057129,75.98846525146485,86.17905021057129,74.09395925146484,85.7660502105713C73.66159325146485,83.99975021057129,73.43294525146484,82.15365021057129,73.43294525146484,80.25435021057129C73.43294525146484,67.4364502105713,83.84624525146484,57.04545021057129,96.69164525146485,57.04545021057129Z" fill-rule="evenodd" fill="url(#master_svg1_1_6912)" fill-opacity="1"/></g><g><path d="M42.42138290710449,13.722223281860352C53.49238290710449,13.722223281860352,62.75688290710449,21.44083328186035,65.1049829071045,31.779423281860353L65.1322829071045,31.904623281860353C59.14728290710449,35.53392328186035,54.560982907104496,41.23122328186035,52.369582907104494,48.00262328186035L52.24348290710449,48.40222328186035L43.89348290710449,38.123423281860354L39.10408290710449,73.50942328186035L51.26058290710449,64.80892328186036C52.39578290710449,73.26022328186035,56.56978290710449,80.75132328186035,62.649782907104495,86.15182328186035L62.983282907104496,86.44432328186035L59.14328290710449,86.44442328186035C37.76988290710449,81.15222328186036,21.545562907104493,62.84712328186035,19.40326690710449,40.44292328186035L19.426582907104493,40.43802328186035L19.36258090710449,39.99752328186035C19.256623507104493,38.78062328186035,19.192183907104493,37.551923281860354,19.170682907104492,36.31272328186035C19.499270907104492,23.78062328186035,29.783182907104493,13.722223281860352,42.42138290710449,13.722223281860352Z" fill-rule="evenodd" fill="url(#master_svg2_1_6904)" fill-opacity="1"/></g><g><path d="M71.88241572265625,29.96843147277832C77.81621572265625,29.96843147277832,82.71201572265625,34.40309147277832,83.42301572265625,40.13223147277832C94.06591572265626,41.14513147277832,102.61671572265625,49.31553147277832,104.18641572265625,59.76483147277832L104.10491572265624,59.26063147277832L104.10491572265624,59.26063147277832L104.01271572265625,58.76013147277832L103.89091572265625,58.17863147277832C101.62401572265625,57.443031472778316,99.20441572265625,57.04543147277832,96.69161572265625,57.04543147277832C83.84621572265625,57.04543147277832,73.43291572265625,67.43643147277832,73.43291572265625,80.25433147277832C73.43291572265625,82.15343147277832,73.66151572265625,83.99923147277832,74.09321572265625,85.76593147277832L73.75921572265625,85.69103147277832L73.36421572265625,85.59723147277832L72.91161572265625,85.48253147277832L72.53421572265626,85.38103147277832L72.10271572265626,85.25823147277832L71.48391572265625,85.06963147277833L71.05611572265624,84.93043147277832C70.74781572265624,84.82753147277832,70.44161572265625,84.71963147277832,70.13771572265625,84.60673147277832L69.68361572265624,84.43383147277832L69.30931572265625,84.28483147277832L68.89851572265624,84.11433147277832C68.61541572265625,83.99423147277832,68.33451572265625,83.86993147277832,68.05591572265625,83.74133147277831L67.56771572265625,83.51043147277832L67.56771572265625,83.51043147277832L67.21701572265624,83.33783147277832L67.21701572265624,83.33783147277832L66.78681572265626,83.11803147277831L66.78681572265626,83.11803147277831L66.36051572265625,82.89123147277832L65.96481572265625,82.67273147277832L65.96481572265625,82.67273147277832L65.55701572265625,82.43903147277831L65.15401572265625,82.19953147277832L64.78191572265625,81.97043147277833L64.56491572265625,81.83333147277833L64.06801572265626,81.50933147277831L63.67091572265625,81.24003147277833L63.28611572265625,80.96983147277831L63.28611572265625,80.96983147277831L62.97631572265625,80.74563147277831L62.97631572265625,80.74563147277831L62.51811572265625,80.40263147277832L62.51811572265625,80.40263147277832L62.21381572265625,80.16703147277832L61.97771572265625,79.97973147277833L61.55807572265625,79.63713147277832L61.55807572265625,79.63713147277832L61.13823572265625,79.28123147277833L61.13823572265625,79.28123147277833L60.85115572265625,79.03003147277832L60.516435722656254,78.72873147277832C60.28567572265625,78.51783147277831,60.05842572265625,78.30343147277833,59.834685722656246,78.08553147277831L59.50171572265625,77.75603147277832L59.22001572265625,77.46893147277832L58.89199572265625,77.12473147277832L58.89199572265625,77.12473147277832L58.56951572265625,76.77513147277833L58.25924572265625,76.42793147277831L57.98144572265625,76.10743147277833C57.78212572265625,75.87413147277832,57.58617572265625,75.63743147277832,57.39383572265625,75.39753147277833L57.09297572265625,75.01593147277832L57.09297572265625,75.01593147277832L56.94657572265625,74.82543147277832C56.81976572265625,74.65903147277832,56.69441572265625,74.49093147277833,56.57083572265625,74.32143147277833L56.31097572265625,73.95923147277833L56.31097572265625,73.95923147277833L56.05664572265625,73.59323147277831C55.86915572265625,73.31903147277832,55.68623572265625,73.04153147277832,55.50795572265625,72.76083147277832L55.24375572265625,72.33693147277832C55.09430572265625,72.09253147277832,54.94821572265625,71.84563147277832,54.80563572265625,71.59633147277832L54.59431572265625,71.22053147277832C54.39944572265625,70.86783147277832,54.21152572265625,70.51063147277833,54.03084572265625,70.14913147277832L53.86031572265625,69.80233147277832L53.75678572265625,69.58583147277832L53.60015572265625,69.24943147277833L53.39008572265625,68.77983147277831L53.39008572265625,68.77983147277831L53.19948572265625,68.33343147277833L53.19948572265625,68.33343147277833C52.98197572265625,67.81183147277832,52.77905972265625,67.28263147277832,52.59126872265625,66.74633147277832L52.40853972265625,66.20773147277832L52.28938972265625,65.83683147277833C52.17085772265625,65.45863147277832,52.05967472265625,65.07713147277832,51.95611572265625,64.69253147277831L66.63981572265625,66.12213147277832L52.24368672265625,48.40143147277832C54.38205572265625,41.455031472778316,59.03018572265625,35.60491147277832,65.13231572265624,31.90458147277832L65.17401572265625,32.09347147277832C67.06931572265626,30.75467947277832,69.38381572265625,29.96843147277832,71.88241572265625,29.96843147277832Z" fill-rule="evenodd" fill="#000000" fill-opacity="0.15000000596046448"/></g><g><path d="M43.89352586791992,38.12344169616699L66.63984586791992,66.12204169616699L51.95594586791992,64.69224169616699C55.29214586791992,77.08314169616699,66.53974586791992,86.24044169616698,79.96264586791992,86.44004169616699L80.41044586791992,86.44344169616699L62.98324586791992,86.44434169616699C56.72254586791992,81.023341696167,52.41644586791992,73.413841696167,51.26054586791992,64.808841696167L39.10404586791992,73.50934169616698L43.89352586791992,38.12344169616699Z" fill-rule="evenodd" fill="#FFFFFF" fill-opacity="1"/></g></g></g></svg>